<mxfile host="app.diagrams.net" modified="2023-10-05T11:01:32.555Z" agent="Mozilla/5.0 (Windows NT 10.0; Win64; x64; rv:109.0) Gecko/20100101 Firefox/117.0" etag="aFWuH6dLfxD7rjkeH3bX" version="22.0.2" type="github" pages="2">
  <diagram name="Page-1" id="oHNCu30B1lPOHuAdrB9l">
    <mxGraphModel dx="836" dy="436" grid="1" gridSize="10" guides="1" tooltips="1" connect="1" arrows="1" fold="1" page="1" pageScale="1" pageWidth="827" pageHeight="1169" math="0" shadow="0">
      <root>
        <mxCell id="0" />
        <mxCell id="1" parent="0" />
        <mxCell id="jcRCGHPQxcGpLLnMZ7Jr-1" value="&lt;div&gt;Tu Commences&lt;/div&gt;&lt;div&gt;Demain&lt;br&gt;&lt;/div&gt;" style="rounded=1;whiteSpace=wrap;html=1;fillColor=#f2f9ff;strokeColor=#999999;" vertex="1" parent="1">
          <mxGeometry x="330" y="280" width="140" height="70" as="geometry" />
        </mxCell>
        <mxCell id="jcRCGHPQxcGpLLnMZ7Jr-6" value="" style="edgeStyle=orthogonalEdgeStyle;rounded=0;orthogonalLoop=1;jettySize=auto;html=1;dashed=1;dashPattern=8 8;startArrow=classic;startFill=1;" edge="1" parent="1" source="jcRCGHPQxcGpLLnMZ7Jr-2" target="jcRCGHPQxcGpLLnMZ7Jr-1">
          <mxGeometry relative="1" as="geometry" />
        </mxCell>
        <mxCell id="jcRCGHPQxcGpLLnMZ7Jr-2" value="Etudiant" style="rounded=0;whiteSpace=wrap;html=1;fillColor=#FF9999;strokeColor=#808080;fontColor=#ffffff;" vertex="1" parent="1">
          <mxGeometry x="345" y="187.5" width="110" height="35" as="geometry" />
        </mxCell>
        <mxCell id="jcRCGHPQxcGpLLnMZ7Jr-5" value="" style="edgeStyle=orthogonalEdgeStyle;rounded=0;orthogonalLoop=1;jettySize=auto;html=1;" edge="1" parent="1" source="jcRCGHPQxcGpLLnMZ7Jr-4" target="jcRCGHPQxcGpLLnMZ7Jr-2">
          <mxGeometry relative="1" as="geometry" />
        </mxCell>
        <mxCell id="jcRCGHPQxcGpLLnMZ7Jr-4" value="&lt;div&gt;&lt;font color=&quot;#ffffff&quot;&gt;Centre de formation&lt;/font&gt;&lt;/div&gt;&lt;div&gt;&lt;font color=&quot;#ffffff&quot;&gt;des apprentis (CFA)&lt;br&gt;&lt;/font&gt;&lt;/div&gt;" style="rounded=0;whiteSpace=wrap;html=1;fillColor=#FF9999;strokeColor=#808080;" vertex="1" parent="1">
          <mxGeometry x="180" y="187.5" width="110" height="35" as="geometry" />
        </mxCell>
        <mxCell id="jcRCGHPQxcGpLLnMZ7Jr-7" value="&lt;div&gt;Opérateur de compétences&lt;br&gt;&lt;/div&gt;" style="rounded=0;whiteSpace=wrap;html=1;fillColor=#9999FF;fontColor=#ffffff;strokeColor=#808080;" vertex="1" parent="1">
          <mxGeometry x="510" y="187.5" width="110" height="35" as="geometry" />
        </mxCell>
        <mxCell id="jcRCGHPQxcGpLLnMZ7Jr-10" value="" style="endArrow=none;startArrow=classic;html=1;rounded=0;exitX=0.5;exitY=0;exitDx=0;exitDy=0;entryX=0.5;entryY=0;entryDx=0;entryDy=0;dashed=1;dashPattern=8 8;endFill=0;" edge="1" parent="1" source="jcRCGHPQxcGpLLnMZ7Jr-4" target="jcRCGHPQxcGpLLnMZ7Jr-7">
          <mxGeometry width="50" height="50" relative="1" as="geometry">
            <mxPoint x="227.96000000000004" y="209.005" as="sourcePoint" />
            <mxPoint x="430" y="110" as="targetPoint" />
            <Array as="points">
              <mxPoint x="235" y="130" />
              <mxPoint x="565" y="130" />
            </Array>
          </mxGeometry>
        </mxCell>
        <mxCell id="jcRCGHPQxcGpLLnMZ7Jr-11" value="&lt;font style=&quot;font-size: 14px;&quot;&gt;Fiancement à 95%&lt;/font&gt;" style="edgeLabel;html=1;align=center;verticalAlign=middle;resizable=0;points=[];" vertex="1" connectable="0" parent="jcRCGHPQxcGpLLnMZ7Jr-10">
          <mxGeometry x="0.1753" relative="1" as="geometry">
            <mxPoint x="-39" as="offset" />
          </mxGeometry>
        </mxCell>
        <mxCell id="jcRCGHPQxcGpLLnMZ7Jr-13" value="" style="endArrow=classic;startArrow=classic;html=1;rounded=0;entryX=0.5;entryY=1;entryDx=0;entryDy=0;exitX=1;exitY=0.5;exitDx=0;exitDy=0;dashed=1;dashPattern=8 8;" edge="1" parent="1" source="jcRCGHPQxcGpLLnMZ7Jr-1" target="jcRCGHPQxcGpLLnMZ7Jr-7">
          <mxGeometry width="50" height="50" relative="1" as="geometry">
            <mxPoint x="390" y="350" as="sourcePoint" />
            <mxPoint x="440" y="300" as="targetPoint" />
            <Array as="points">
              <mxPoint x="565" y="315" />
            </Array>
          </mxGeometry>
        </mxCell>
        <mxCell id="jcRCGHPQxcGpLLnMZ7Jr-14" value="&lt;font style=&quot;font-size: 14px;&quot;&gt;API&lt;/font&gt;" style="edgeLabel;html=1;align=center;verticalAlign=middle;resizable=0;points=[];" vertex="1" connectable="0" parent="jcRCGHPQxcGpLLnMZ7Jr-13">
          <mxGeometry x="0.3547" y="-2" relative="1" as="geometry">
            <mxPoint x="-7" y="27" as="offset" />
          </mxGeometry>
        </mxCell>
        <mxCell id="jcRCGHPQxcGpLLnMZ7Jr-16" value="France Competences" style="rounded=0;whiteSpace=wrap;html=1;fillColor=#9999FF;fontColor=#ffffff;strokeColor=#808080;" vertex="1" parent="1">
          <mxGeometry x="680" y="120" width="110" height="35" as="geometry" />
        </mxCell>
        <mxCell id="jcRCGHPQxcGpLLnMZ7Jr-17" value="" style="endArrow=classic;html=1;rounded=0;entryX=1;entryY=0;entryDx=0;entryDy=0;exitX=0;exitY=1;exitDx=0;exitDy=0;" edge="1" parent="1" source="jcRCGHPQxcGpLLnMZ7Jr-16" target="jcRCGHPQxcGpLLnMZ7Jr-7">
          <mxGeometry width="50" height="50" relative="1" as="geometry">
            <mxPoint x="390" y="350" as="sourcePoint" />
            <mxPoint x="440" y="300" as="targetPoint" />
          </mxGeometry>
        </mxCell>
        <mxCell id="jcRCGHPQxcGpLLnMZ7Jr-28" value="Gère" style="edgeLabel;html=1;align=center;verticalAlign=middle;resizable=0;points=[];" vertex="1" connectable="0" parent="jcRCGHPQxcGpLLnMZ7Jr-17">
          <mxGeometry x="-0.1624" y="-2" relative="1" as="geometry">
            <mxPoint as="offset" />
          </mxGeometry>
        </mxCell>
        <mxCell id="jcRCGHPQxcGpLLnMZ7Jr-19" value="" style="endArrow=classic;startArrow=classic;html=1;rounded=0;exitX=0.5;exitY=1;exitDx=0;exitDy=0;entryX=0;entryY=0.5;entryDx=0;entryDy=0;dashed=1;dashPattern=8 8;" edge="1" parent="1" source="jcRCGHPQxcGpLLnMZ7Jr-4" target="jcRCGHPQxcGpLLnMZ7Jr-1">
          <mxGeometry width="50" height="50" relative="1" as="geometry">
            <mxPoint x="390" y="350" as="sourcePoint" />
            <mxPoint x="440" y="300" as="targetPoint" />
            <Array as="points">
              <mxPoint x="235" y="315" />
            </Array>
          </mxGeometry>
        </mxCell>
        <mxCell id="jcRCGHPQxcGpLLnMZ7Jr-20" value="&lt;div&gt;Responsable&lt;/div&gt;&lt;div&gt;Relations&lt;/div&gt;&lt;div&gt;Entrprises&lt;br&gt;&lt;/div&gt;" style="edgeLabel;html=1;align=center;verticalAlign=middle;resizable=0;points=[];" vertex="1" connectable="0" parent="jcRCGHPQxcGpLLnMZ7Jr-19">
          <mxGeometry x="-0.3973" y="-2" relative="1" as="geometry">
            <mxPoint x="7" y="21" as="offset" />
          </mxGeometry>
        </mxCell>
        <mxCell id="jcRCGHPQxcGpLLnMZ7Jr-22" style="edgeStyle=orthogonalEdgeStyle;rounded=0;orthogonalLoop=1;jettySize=auto;html=1;entryX=0.5;entryY=1;entryDx=0;entryDy=0;dashed=1;dashPattern=8 8;startArrow=classic;startFill=1;" edge="1" parent="1" source="jcRCGHPQxcGpLLnMZ7Jr-21" target="jcRCGHPQxcGpLLnMZ7Jr-1">
          <mxGeometry relative="1" as="geometry" />
        </mxCell>
        <mxCell id="jcRCGHPQxcGpLLnMZ7Jr-21" value="&lt;div&gt;Entreprises&lt;/div&gt;&lt;div&gt;(partenaires)&lt;/div&gt;" style="rounded=0;whiteSpace=wrap;html=1;strokeColor=#808080;" vertex="1" parent="1">
          <mxGeometry x="180" y="390" width="110" height="35" as="geometry" />
        </mxCell>
        <mxCell id="jcRCGHPQxcGpLLnMZ7Jr-23" value="" style="endArrow=none;html=1;rounded=0;exitX=0;exitY=0;exitDx=0;exitDy=0;entryX=0;entryY=1;entryDx=0;entryDy=0;startArrow=classic;startFill=1;endFill=0;" edge="1" parent="1" source="jcRCGHPQxcGpLLnMZ7Jr-21" target="jcRCGHPQxcGpLLnMZ7Jr-4">
          <mxGeometry width="50" height="50" relative="1" as="geometry">
            <mxPoint x="390" y="350" as="sourcePoint" />
            <mxPoint x="440" y="300" as="targetPoint" />
          </mxGeometry>
        </mxCell>
      </root>
    </mxGraphModel>
  </diagram>
  <diagram id="gc3fd1F_5h6y8D8LIi-V" name="Page-2">
    <mxGraphModel dx="794" dy="414" grid="1" gridSize="10" guides="1" tooltips="1" connect="1" arrows="1" fold="1" page="1" pageScale="1" pageWidth="827" pageHeight="1169" math="0" shadow="0">
      <root>
        <mxCell id="0" />
        <mxCell id="1" parent="0" />
        <mxCell id="Klh4AnQFZYfLo_JQLdED-1" value="" style="edgeStyle=orthogonalEdgeStyle;rounded=0;orthogonalLoop=1;jettySize=auto;html=1;" edge="1" parent="1" source="vsbgenpZEalwx1Uzw0oB-1" target="vsbgenpZEalwx1Uzw0oB-4">
          <mxGeometry relative="1" as="geometry" />
        </mxCell>
        <mxCell id="Klh4AnQFZYfLo_JQLdED-2" style="edgeStyle=orthogonalEdgeStyle;rounded=0;orthogonalLoop=1;jettySize=auto;html=1;exitX=1;exitY=0.5;exitDx=0;exitDy=0;entryX=0;entryY=0.5;entryDx=0;entryDy=0;" edge="1" parent="1" source="vsbgenpZEalwx1Uzw0oB-1" target="vsbgenpZEalwx1Uzw0oB-3">
          <mxGeometry relative="1" as="geometry">
            <Array as="points">
              <mxPoint x="260" y="235" />
              <mxPoint x="260" y="150" />
            </Array>
          </mxGeometry>
        </mxCell>
        <mxCell id="Klh4AnQFZYfLo_JQLdED-3" style="edgeStyle=orthogonalEdgeStyle;rounded=0;orthogonalLoop=1;jettySize=auto;html=1;exitX=1;exitY=0.5;exitDx=0;exitDy=0;entryX=0;entryY=0.5;entryDx=0;entryDy=0;" edge="1" parent="1" source="vsbgenpZEalwx1Uzw0oB-1" target="vsbgenpZEalwx1Uzw0oB-5">
          <mxGeometry relative="1" as="geometry" />
        </mxCell>
        <mxCell id="vsbgenpZEalwx1Uzw0oB-1" value="&lt;div&gt;Tu Commences&lt;/div&gt;&lt;div&gt;Demain&lt;br&gt;&lt;/div&gt;" style="rounded=1;whiteSpace=wrap;html=1;fillColor=#f2f9ff;strokeColor=#999999;" vertex="1" parent="1">
          <mxGeometry x="80" y="200" width="140" height="70" as="geometry" />
        </mxCell>
        <mxCell id="vsbgenpZEalwx1Uzw0oB-3" value="Placement: Jobboard, matching etudiants- entreprises, centralisation des offres d&#39;emplois" style="rounded=0;whiteSpace=wrap;html=1;" vertex="1" parent="1">
          <mxGeometry x="300" y="120" width="240" height="60" as="geometry" />
        </mxCell>
        <mxCell id="vsbgenpZEalwx1Uzw0oB-4" value="&lt;div&gt;Suivi Pédagogique: Livret de compétence, &lt;br&gt;&lt;/div&gt;&lt;div&gt;messagerie instantanée, questionnaire de satisfaction&lt;br&gt;&lt;/div&gt;" style="rounded=0;whiteSpace=wrap;html=1;" vertex="1" parent="1">
          <mxGeometry x="300" y="205" width="240" height="60" as="geometry" />
        </mxCell>
        <mxCell id="vsbgenpZEalwx1Uzw0oB-5" value="Gestion administrative: Rédaction contrats, signature électronique, transfert de document aux OPCO " style="rounded=0;whiteSpace=wrap;html=1;" vertex="1" parent="1">
          <mxGeometry x="300" y="290" width="240" height="60" as="geometry" />
        </mxCell>
      </root>
    </mxGraphModel>
  </diagram>
</mxfile>
